{"title":"Naruto Shippuden Episode 277 - With English Subtitle MP4 [Jazz_S","uid":7599220,"size":40868163,"categoryP":"video","categoryS":"tv_shows","magnet":"?xt=urn:btih:114b610dd54a31d9392bc56055d4076d2f6969cd&amp;dn=Naruto+Shippuden+Episode+277+-+With+English+Subtitle+MP4+%5BJazz_S&amp;tr=udp%3A%2F%2Ftracker.openbittorrent.com%3A80&amp;tr=udp%3A%2F%2Fopen.demonii.com%3A1337&amp;tr=udp%3A%2F%2Ftracker.coppersurfer.tk%3A6969&amp;tr=udp%3A%2F%2Fexodus.desync.com%3A6969","seeders":0,"leechers":1,"uploader":"jazzsingh","files":1,"time":1346768077,"description":"Naruto Shippuden Episode 277\n\n\nTitle: The Sign of Settlement\n\nRelease date : August 30th, 2012\n\nAudio language : Japanese\n\nSubTitle language : English\n\n\n\nGeneral\n\nFormat : MPEG-4\nFormat profile : Base Media\nCodec ID : isom\nFile size : 39.0 MiB\nDuration : 23mn 9s\nOverall bit rate mode : Variable\nOverall bit rate : 235 Kbps\nEncoded date : UTC 2012-08-29 11:02:54\nTagged date : UTC 2012-08-29 11:02:54\n\n\nVideo\n\nFormat : AVC\nFormat/Info : Advanced Video Codec\nFormat profile : &lt;a class=&quot;__cf_email__&quot; href=&quot;/cdn-cgi/l/email-protection&quot; data-cfemail=&quot;6b23020c032b2758455b&quot;&gt;[email&amp;#160;protected]&lt;/a&gt;&lt;script data-cfhash='f9e31' type=&quot;text/javascript&quot;&gt;\n/* &lt;![CDATA[ */!function(){try{var t=&quot;currentScript&quot;in document?document.currentScript:function(){for(var t=document.getElementsByTagName(&quot;script&quot;),e=t.length;e--;)if(t[e].getAttribute(&quot;data-cfhash&quot;))return t[e]}();if(t&amp;&amp;t.previousSibling){var e,r,n,i,c=t.previousSibling,a=c.getAttribute(&quot;data-cfemail&quot;);if(a){for(e=&quot;&quot;,r=parseInt(a.substr(0,2),16),n=2;a.length-n;n+=2)i=parseInt(a.substr(n,2),16)^r,e+=String.fromCharCode(i);e=document.createTextNode(e),c.parentNode.replaceChild(e,c)}t.parentNode.removeChild(t);}}catch(u){}}()/* ]]&gt; */&lt;/script&gt;\nFormat settings, CABAC : Yes\nFormat settings, ReFrames : 6 frames\nCodec ID : avc1\nCodec ID/Info : Advanced Video Coding\nDuration : 23mn 9s\nBit rate mode : Variable\nBit rate : 138 Kbps\nMaximum bit rate : 1 143 Kbps\nWidth : 640 pixels\nHeight : 360 pixels\nDisplay aspect ratio : 16:9\nOriginal display aspect ratio : 16:9\nFrame rate mode : Constant\nFrame rate : 23.976 fps\nColor space : YUV\nChroma subsampling : 4:2:0\nBit depth : 8 bits\nScan type : Progressive\nBits/(Pixel*Frame) : 0.025\nStream size : 22.9 MiB (59%)\nWriting library : x264 core 125 r2208 d9d2288\n\n\nAudio\n\nFormat : AAC\nFormat/Info : Advanced Audio Codec\nFormat profile : LC\nCodec ID : 40\nDuration : 23mn 9s\nBit rate mode : Variable\nBit rate : 93.3 Kbps\nMaximum bit rate : 153 Kbps\nChannel(s) : 2 channels\nChannel positions : Front: L R\nSampling rate : 44.1 KHz\nCompression mode : Lossy\nStream size : 15.4 MiB (40%)\nEncoded date : UTC 2012-08-29 11:02:54\nTagged date : UTC 2012-08-29 11:02:54\n","torrent":{"xt":"urn:btih:114b610dd54a31d9392bc56055d4076d2f6969cd","amp;dn":"Naruto+Shippuden+Episode+277+-+With+English+Subtitle+MP4+%5BJazz_S","amp;tr":["udp%3A%2F%2Ftracker.openbittorrent.com%3A80","udp%3A%2F%2Fopen.demonii.com%3A1337","udp%3A%2F%2Ftracker.coppersurfer.tk%3A6969","udp%3A%2F%2Fexodus.desync.com%3A6969"],"infoHash":"114b610dd54a31d9392bc56055d4076d2f6969cd","infoHashBuffer":{"type":"Buffer","data":[17,75,97,13,213,74,49,217,57,43,197,96,85,212,7,109,47,105,105,205]},"announce":[],"urlList":[]}}